<svg xmlns="http://www.w3.org/2000/svg" width="1600" height="980" viewBox="0 0 1600 980" role="img" aria-labelledby="title desc">
  <title id="title">web-admin 감사 로그 화면 설계</title>
  <desc id="desc">감사 로그 메뉴의 상세 화면 설계</desc>
  <defs><style>
    .bg{fill:#eef1f4}.panel{fill:#fff;stroke:#d9e2e9}.dark{fill:#17212b}.active{fill:#f4f8fb}.brand{fill:#2f6f6b}.muted{fill:#61727f}.head{fill:#f5f8fa}.line{stroke:#d9e2e9}.ok{fill:#e5f6ef}
    .text{fill:#18212b;font-family:Inter,Arial,sans-serif}.white{fill:#fff;font-family:Inter,Arial,sans-serif}.xs{font-size:14px}.sm{font-size:17px}.md{font-size:21px}.lg{font-size:28px;font-weight:700}.xl{font-size:34px;font-weight:700}.bold{font-weight:700}.okText{fill:#12683f;font-family:Inter,Arial,sans-serif;font-size:14px;font-weight:700}
  </style></defs>
  <rect width="1600" height="980" class="bg"/>
  <rect x="64" y="64" width="256" height="852" rx="12" class="dark"/>
  <rect x="88" y="88" width="44" height="44" rx="9" class="brand"/>
  <text x="148" y="113" class="white md bold">관리자 콘솔</text><text x="148" y="137" class="white xs" opacity=".68">Smart Factory Admin</text>
  <text x="124" y="203" class="white sm">관리 대시보드</text><text x="94" y="203" class="white xs" opacity=".68">01</text>
  <text x="124" y="259" class="white sm">테넌트 관리</text><text x="94" y="259" class="white xs" opacity=".68">02</text>
  <text x="124" y="315" class="white sm">사용자/권한</text><text x="94" y="315" class="white xs" opacity=".68">03</text>
  <text x="124" y="371" class="white sm">역할/권한</text><text x="94" y="371" class="white xs" opacity=".68">04</text>
  <rect x="84" y="400" width="216" height="42" rx="7" class="active"/>
  <text x="124" y="427" class="text sm bold">감사 로그</text><text x="94" y="427" class="text xs bold">05</text>
  <text x="124" y="483" class="white sm">위험 작업</text><text x="94" y="483" class="white xs" opacity=".68">06</text>
  <rect x="84" y="808" width="216" height="72" rx="9" fill="#22313d" stroke="#354757"/>
  <text x="104" y="837" class="white xs" opacity=".68">관리 테넌트</text><text x="104" y="863" class="white sm bold">11111111...1111</text>

  <rect x="344" y="64" width="1192" height="78" rx="12" class="panel"/>
  <text x="372" y="96" class="text xs bold" fill="#2f6f6b">Audit Evidence</text><text x="372" y="124" class="text lg">감사 로그</text>
  <text x="344" y="196" class="text xl">감사 로그</text>
  <text x="344" y="228" class="text sm muted">중요 변경 이력과 requestId evidence를 조회합니다.</text>
  <rect x="344" y="264" width="1192" height="86" rx="10" class="panel"/>
  <text x="372" y="297" class="text sm bold">검색 조건</text>
  <rect x="372" y="312" width="200" height="28" rx="6" class="head"/><text x="388" y="332" class="text xs muted">액션</text>
  <rect x="592" y="312" width="200" height="28" rx="6" class="head"/><text x="608" y="332" class="text xs muted">리소스</text>
  <rect x="812" y="312" width="250" height="28" rx="6" class="head"/><text x="828" y="332" class="text xs muted">요청 ID</text>
  <rect x="1260" y="302" width="92" height="36" rx="7" fill="#2f6f6b"/><text x="1290" y="326" class="white xs bold">검색</text>
  <rect x="1366" y="302" width="108" height="36" rx="7" fill="#eef3f6" stroke="#d2dde5"/><text x="1398" y="326" class="text xs bold">초기화</text>

  <rect x="344" y="382" width="1192" height="398" rx="10" class="panel"/>
  <text x="372" y="422" class="text md bold">감사 로그 목록</text>
  <rect x="372" y="448" width="1136" height="42" rx="6" class="head"/>
  <text x="394" y="475" class="text xs bold muted">발생시각</text><text x="560" y="475" class="text xs bold muted">액션</text><text x="838" y="475" class="text xs bold muted">리소스</text><text x="1084" y="475" class="text xs bold muted">결과</text><text x="1214" y="475" class="text xs bold muted">요청 ID</text>
  <line x1="372" y1="526" x2="1508" y2="526" class="line"/>
  <text x="394" y="512" class="text sm">06.22 01:10</text><text x="560" y="512" class="text sm bold">tenant.status.updated</text><text x="838" y="512" class="text sm">tenant:2222</text><rect x="1084" y="496" width="54" height="28" rx="14" class="ok"/><text x="1098" y="515" class="okText">성공</text><text x="1214" y="512" class="text sm">req-admin-status-001</text>
  <line x1="372" y1="584" x2="1508" y2="584" class="line"/>
  <text x="394" y="570" class="text sm">06.22 01:20</text><text x="560" y="570" class="text sm bold">auth.user.created</text><text x="838" y="570" class="text sm">user:operator</text><rect x="1084" y="554" width="54" height="28" rx="14" class="ok"/><text x="1098" y="573" class="okText">성공</text><text x="1214" y="570" class="text sm">req-admin-user-001</text>
  <line x1="372" y1="642" x2="1508" y2="642" class="line"/>
  <text x="394" y="628" class="text sm">06.22 01:30</text><text x="560" y="628" class="text sm bold">role.permissions.replaced</text><text x="838" y="628" class="text sm">role:wms_manager</text><rect x="1084" y="612" width="54" height="28" rx="14" class="ok"/><text x="1098" y="631" class="okText">성공</text><text x="1214" y="628" class="text sm">req-admin-role-001</text>

  <rect x="344" y="810" width="1192" height="88" rx="10" class="panel"/>
  <text x="372" y="846" class="text md bold">상세 evidence 패널</text>
  <text x="372" y="876" class="text sm muted">행 선택 시 actor, action, resource, result, requestId, occurredAt을 펼쳐서 확인합니다.</text>
</svg>
